# xmcd CD database file
#
# Track frame offsets:
#	150
#	13290
#	24893
#	39305
#	54528
#	67498
#	82628
#	97368
#	111603
#	127258
#	142300
#	156418
#	174693
#	189028
#	203773
#	218815
#	238720
#	256045
#	276893
#	290355
#
# Disc length: 4040 seconds
#
# Revision: 2
# Processed by: cddbd v1.5.1PL0 Copyright (c) Steve Scherf et al.
# Submitted via: CDex 1.51
#
DISCID=330fc614
DTITLE=Various Artist - ロボットアニメ大全集 Vol2(Disc1)
DYEAR=1900
DGENRE=Anime
TTITLE0=水木一郎、ザ・ブレッスンフォー/コン・バトラーVのテーマ
TTITLE1=水木一郎、コロムビアゆりかご会/行け!コン・バトラーV
TTITLE2=水木一郎、コロムビアゆりかご会/行くぞ!正義の戦いに
TTITLE3=水木一郎、こおろぎ'73/豹馬もの思い
TTITLE4=ささきいさお、ヤング・フレッシュ/すきだッ ダンガードA
TTITLE5=ささきいさお/その名もタクマ 宇宙パイロット
TTITLE6=ささきいさお、コロムビアゆりかご会/行け!ダンガードA
TTITLE7=ささきいさお/愛のオーロラ
TTITLE8=ささきいさお、東京荒川少年少女合唱団/超常スマッシュギンガイザー
TTITLE9=ささきいさお、東京荒川少年少女合唱団/さがしに行かないか
TTITLE10=堀江美都子、こおろぎ'73、コロムビアゆりかご会/ボルテスVのうた
TTITLE11=水木一郎、こおろぎ'73/父をもとめて
TTITLE12=水木一郎、コロムビアゆりかご会/超人戦隊バラタック
TTITLE13=堀江美都子、こおろぎ'73、コロムビアゆりかご会/なかまっていいな
TTITLE14=ささきいさお、コロムビアゆりかご会/立て!闘将ダイモス
TTITLE15=かおりくみこ、大倉正丈/エリカのバラード
TTITLE16=ささきいさお、たかの羽児童合唱団/ぼくらのダイモス
TTITLE17=かおりくみこ、大倉正丈/愛の神話
TTITLE18=藤原誠/カムヒア!ダイターン3
TTITLE19=こおろぎ'73/トッポでタンゴ
EXTD=
EXTT0=
EXTT1=
EXTT2=
EXTT3=
EXTT4=
EXTT5=
EXTT6=
EXTT7=
EXTT8=
EXTT9=
EXTT10=
EXTT11=
EXTT12=
EXTT13=
EXTT14=
EXTT15=
EXTT16=
EXTT17=
EXTT18=
EXTT19=
PLAYORDER=
